<?xml version="1.0" encoding="UTF-8" standalone="no"?>
<!-- Created with Inkscape (http://www.inkscape.org/) -->

<svg
   xmlns:dc="http://purl.org/dc/elements/1.1/"
   xmlns:cc="http://creativecommons.org/ns#"
   xmlns:rdf="http://www.w3.org/1999/02/22-rdf-syntax-ns#"
   xmlns:svg="http://www.w3.org/2000/svg"
   xmlns="http://www.w3.org/2000/svg"
   xmlns:sodipodi="http://sodipodi.sourceforge.net/DTD/sodipodi-0.dtd"
   xmlns:inkscape="http://www.inkscape.org/namespaces/inkscape"
   id="svg2"
   version="1.1"
   inkscape:version="0.91 r"
   xml:space="preserve"
   width="547.5"
   height="135.89999"
   viewBox="0 0 547.5 135.89999"
   sodipodi:docname="dambiv5.svg"><metadata
     id="metadata8"><rdf:RDF><cc:Work
         rdf:about=""><dc:format>image/svg+xml</dc:format><dc:type
           rdf:resource="http://purl.org/dc/dcmitype/StillImage" /><dc:title></dc:title></cc:Work></rdf:RDF></metadata><defs
     id="defs6"><clipPath
       clipPathUnits="userSpaceOnUse"
       id="clipPath20"><path
         d="m 0,108.72 438,0 L 438,0 0,0 0,108.72 Z"
         id="path22"
         inkscape:connector-curvature="0" /></clipPath><clipPath
       clipPathUnits="userSpaceOnUse"
       id="clipPath112"><path
         d="m 193.101,108.72 -48.939,-16.897 0.274,-42.54 -0.309,0.044 -1.107,-7.724 0,-33.676 42.073,-6.031 5.837,40.724 -33.993,4.871 47.724,12.91 4.25,-10.033 47.773,20.234 -13.901,32.824 -41.749,-17.682 -7.933,22.976 z M 73,98.333 73,0 l 70.02,0 0,7.927 -4.73,0.678 4.73,32.998 0,56.73 -70.02,0 z"
         id="path114"
         inkscape:connector-curvature="0" /></clipPath><clipPath
       clipPathUnits="userSpaceOnUse"
       id="clipPath134"><path
         d="m 0,108.72 438,0 L 438,0 0,0 0,108.72 Z"
         id="path136"
         inkscape:connector-curvature="0" /></clipPath></defs><sodipodi:namedview
     pagecolor="#ffffff"
     bordercolor="#666666"
     borderopacity="1"
     objecttolerance="10"
     gridtolerance="10"
     guidetolerance="10"
     inkscape:pageopacity="0"
     inkscape:pageshadow="2"
     inkscape:window-width="1920"
     inkscape:window-height="1053"
     id="namedview4"
     showgrid="false"
     inkscape:zoom="2.3232877"
     inkscape:cx="266.84985"
     inkscape:cy="67.689582"
     inkscape:window-x="1920"
     inkscape:window-y="0"
     inkscape:window-maximized="1"
     inkscape:current-layer="g10" /><g
     id="g10"
     inkscape:groupmode="layer"
     inkscape:label="dambiv4"
     transform="matrix(1.25,0,0,-1.25,0,135.9)"><text
       transform="matrix(1,0,0,-1,47.3877,22.1641)"
       style="font-variant:normal;font-weight:bold;font-stretch:normal;font-size:91.81069946px;font-family:Harabara;-inkscape-font-specification:Harabara;writing-mode:lr-tb;fill:#c7313c;fill-opacity:1;fill-rule:nonzero;stroke:none"
       id="text12"><tspan
         x="0 54.902798 95.942184 161.03596 214.10255"
         y="0"
         sodipodi:role="line"
         id="tspan14">DaMBi</tspan></text>
<g
       id="g16"><g
         id="g18"
         clip-path="url(#clipPath20)"><g
           id="g24"
           transform="translate(39.9863,79.1592)"><path
             d="m 0,0 c 1.102,-3.843 2.725,-7.718 4.682,-11.295 1.97,-3.582 4.313,-6.993 7.269,-9.754 1.47,-1.381 3.078,-2.608 4.832,-3.559 0.882,-0.477 1.769,-0.89 2.726,-1.243 1.003,-0.39 1.904,-0.666 2.906,-0.951 3.931,-1.091 8.068,-1.363 12.183,-0.975 4.128,0.354 8.2,1.383 12.501,1.785 2.153,0.199 4.394,0.08 6.531,-0.519 2.148,-0.555 4.185,-1.804 5.657,-3.463 1.492,-1.638 2.54,-3.482 3.939,-4.9 1.369,-1.447 3.155,-2.368 5.116,-2.817 0.489,-0.113 0.985,-0.204 1.49,-0.267 0.249,-0.044 0.504,-0.058 0.758,-0.084 0.252,-0.016 0.525,-0.065 0.698,-0.047 0.993,0.067 2.064,0.197 3.1,0.308 l 6.275,0.699 c 8.374,0.917 16.766,1.722 25.189,2.205 4.211,0.238 8.429,0.398 12.657,0.389 4.226,-0.026 8.469,-0.156 12.696,-0.87 1.056,-0.184 2.111,-0.412 3.157,-0.734 1.041,-0.328 2.088,-0.732 3.051,-1.423 0.478,-0.344 0.932,-0.787 1.264,-1.353 0.333,-0.565 0.489,-1.261 0.439,-1.908 -0.052,-0.656 -0.238,-1.226 -0.516,-1.784 -0.224,-0.45 -0.52,-0.962 -0.844,-1.432 -1.269,-1.829 -2.856,-3.297 -4.435,-4.714 l -4.781,-4.127 c -3.106,-2.747 -6.116,-5.728 -7.714,-9.421 -0.386,-0.92 -0.678,-1.871 -0.867,-2.842 -0.162,-0.967 -0.265,-2.005 -0.218,-2.951 0.026,-0.953 0.339,-1.852 0.764,-1.936 0.483,-0.192 1.494,0.148 2.318,0.607 1.724,0.951 3.341,2.29 4.901,3.646 1.56,1.372 3.069,2.818 4.556,4.291 2.973,2.949 5.859,6.005 8.765,9.052 2.919,3.04 5.796,6.115 8.983,8.986 0.808,0.712 1.63,1.411 2.575,2.049 0.482,0.315 0.969,0.628 1.656,0.856 l 0.797,0.219 0.857,0.181 c 2.236,0.387 4.459,0.314 6.611,0.026 4.313,-0.589 8.405,-1.876 12.399,-3.305 3.994,-1.442 7.898,-3.059 11.785,-4.686 7.768,-3.247 15.475,-6.61 23.438,-9.044 3.977,-1.204 8.026,-2.17 12.1,-2.535 2.034,-0.183 4.072,-0.203 6.069,0.016 0.997,0.113 1.987,0.269 2.949,0.517 l 0.362,0.088 c 0.062,0.011 0.235,0.067 0.347,0.098 0.195,0.064 0.366,0.127 0.524,0.209 0.155,0.073 0.26,0.16 0.274,0.182 0.017,0.034 -0.036,-0.082 -0.027,-0.116 0.037,-0.052 -0.13,0.323 -0.416,0.608 -0.285,0.307 -0.644,0.616 -1.026,0.91 -0.769,0.589 -1.631,1.132 -2.511,1.648 -1.769,1.031 -3.632,1.96 -5.513,2.852 -3.773,1.775 -7.642,3.391 -11.536,4.948 -7.795,3.103 -15.701,5.963 -23.638,8.73 -7.939,2.758 -15.922,5.422 -23.926,7.971 l 0.158,-0.037 c -0.558,0.094 -1.123,0.205 -1.767,0.474 -0.32,0.154 -0.694,0.321 -1.073,0.798 -0.184,0.237 -0.34,0.596 -0.354,0.949 -0.027,0.364 0.064,0.647 0.159,0.891 0.205,0.455 0.45,0.722 0.678,0.961 0.233,0.236 0.465,0.435 0.696,0.613 0.463,0.359 0.927,0.659 1.393,0.941 1.866,1.107 3.765,1.975 5.676,2.823 3.824,1.673 7.695,3.158 11.572,4.619 l 23.295,8.519 c 3.859,1.448 7.725,2.907 11.447,4.575 0.924,0.421 1.843,0.857 2.71,1.332 0.43,0.238 0.854,0.486 1.225,0.747 0.185,0.129 0.355,0.263 0.486,0.386 0.136,0.104 0.194,0.278 0.132,0.094 -0.037,-0.106 0.013,-0.362 0.106,-0.458 0.06,-0.088 0.091,-0.078 0.043,-0.061 -0.055,0.038 -0.308,0.111 -0.425,0.138 -0.498,0.073 -1.045,0.204 -1.502,0.229 -0.924,0.099 -1.946,0.15 -2.945,0.132 -4.025,-0.044 -8.101,-0.633 -12.129,-1.364 -4.033,-0.74 -8.038,-1.682 -12.014,-2.726 -3.974,-1.054 -7.919,-2.23 -11.812,-3.544 -3.879,-1.334 -7.758,-2.75 -11.386,-4.548 -0.912,-0.45 -1.763,-0.936 -2.596,-1.479 -0.848,-0.57 -1.752,-1.152 -2.653,-1.69 -0.908,-0.54 -1.84,-1.054 -2.837,-1.497 -1.009,-0.418 -2.025,-0.875 -3.403,-0.84 -0.353,0.038 -0.729,0.089 -1.106,0.297 -0.366,0.192 -0.712,0.506 -0.907,0.853 -0.418,0.703 -0.447,1.368 -0.462,1.964 0.011,1.197 0.267,2.25 0.542,3.289 0.579,2.061 1.345,4.008 2.144,5.934 3.254,7.666 7.062,15.007 10.419,22.528 0.806,1.859 1.568,3.769 2.045,5.685 0.228,0.944 0.397,1.946 0.282,2.74 -0.057,0.405 -0.207,0.63 -0.341,0.702 -0.138,0.096 -0.507,0.11 -0.908,0.005 -0.817,-0.207 -1.689,-0.712 -2.497,-1.255 -0.814,-0.556 -1.598,-1.185 -2.35,-1.854 -1.506,-1.339 -2.9,-2.824 -4.189,-4.39 -1.289,-1.573 -2.46,-3.215 -3.491,-4.977 l -3.096,-5.364 c -2.12,-3.575 -4.413,-7.071 -7.003,-10.344 -2.569,-3.29 -5.441,-6.349 -8.567,-9.128 -3.141,-2.761 -6.572,-5.2 -10.227,-7.241 -7.317,-4.095 -15.58,-6.366 -23.9,-6.974 -2.086,-0.147 -4.157,-0.201 -6.179,-0.378 -2.041,-0.181 -4.077,-0.45 -6.106,-0.771 -4.059,-0.643 -8.088,-1.52 -12.102,-2.466 l -6.023,-1.451 c -2.014,-0.464 -4.036,-0.903 -6.044,-1.409 -4.016,-1.005 -8.053,-2.006 -12.253,-2.42 -1.054,-0.078 -2.114,-0.147 -3.193,-0.091 -0.539,0.029 -1.077,0.066 -1.627,0.157 -0.496,0.067 -1.044,0.193 -1.591,0.322 -2.111,0.563 -4.078,1.591 -5.802,2.86 -3.457,2.562 -6.167,5.762 -9.04,8.69 -2.848,2.958 -5.818,5.748 -9.095,8.121 -1.653,1.221 -3.289,2.262 -5.07,2.9 -1.798,0.678 -3.725,1.024 -5.674,1.127 -3.908,0.199 -7.882,-0.543 -11.691,-1.75 -3.792,-1.209 -7.563,-2.89 -10.924,-4.872 l -1.809,3.028 c 1.944,1.078 3.831,1.941 5.813,2.751 1.967,0.805 3.98,1.498 6.033,2.075 4.097,1.153 8.41,1.808 12.766,1.472 2.171,-0.175 4.352,-0.624 6.403,-1.461 0.51,-0.234 1.016,-0.404 1.524,-0.694 0.498,-0.27 1.042,-0.538 1.445,-0.822 l 0.651,-0.421 c 0.305,-0.192 0.453,-0.321 0.686,-0.485 0.43,-0.308 0.855,-0.622 1.27,-0.948 3.359,-2.569 6.36,-5.546 9.165,-8.615 2.823,-3.042 5.434,-6.26 8.581,-8.713 1.572,-1.22 3.309,-2.179 5.184,-2.734 1.897,-0.554 3.857,-0.632 5.893,-0.519 4.048,0.272 8.1,1.129 12.123,2.015 2.012,0.455 4,1.021 5.996,1.557 1.998,0.532 4.008,1.023 6.02,1.511 4.027,0.968 8.078,1.871 12.183,2.539 2.051,0.335 4.115,0.616 6.191,0.81 2.096,0.192 4.159,0.255 6.196,0.405 8.151,0.628 16.196,2.874 23.312,6.89 3.554,2.003 6.89,4.392 9.948,7.099 3.043,2.725 5.842,5.726 8.35,8.962 2.528,3.22 4.769,6.661 6.852,10.203 l 3.083,5.387 c 1.05,1.811 2.278,3.55 3.603,5.178 1.331,1.631 2.768,3.175 4.346,4.59 0.789,0.707 1.618,1.379 2.508,1.992 0.902,0.601 1.831,1.184 3.021,1.504 0.584,0.135 1.33,0.257 2.114,-0.162 0.786,-0.446 1.084,-1.279 1.169,-1.878 0.172,-1.264 -0.059,-2.339 -0.295,-3.396 -0.517,-2.1 -1.291,-4.047 -2.119,-5.98 -3.358,-7.589 -7.148,-14.954 -10.331,-22.523 -0.779,-1.891 -1.52,-3.803 -2.053,-5.726 -0.254,-0.954 -0.468,-1.935 -0.468,-2.81 0,-0.425 0.07,-0.837 0.2,-1.024 0.114,-0.182 0.241,-0.246 0.587,-0.287 0.708,-0.035 1.676,0.306 2.548,0.696 0.891,0.399 1.772,0.887 2.638,1.406 0.872,0.524 1.705,1.064 2.57,1.649 0.895,0.591 1.84,1.134 2.779,1.603 3.776,1.893 7.678,3.333 11.605,4.707 3.933,1.349 7.91,2.556 11.921,3.642 4.013,1.076 8.062,2.031 12.158,2.796 4.098,0.752 8.236,1.37 12.483,1.429 1.067,0.018 2.115,-0.022 3.245,-0.144 0.576,-0.042 1.038,-0.158 1.562,-0.234 0.386,-0.086 0.638,-0.146 1.042,-0.346 0.185,-0.095 0.425,-0.245 0.65,-0.532 0.247,-0.307 0.352,-0.833 0.26,-1.192 -0.189,-0.691 -0.496,-0.919 -0.727,-1.17 -0.245,-0.23 -0.484,-0.414 -0.721,-0.583 -0.475,-0.334 -0.945,-0.608 -1.418,-0.87 -0.944,-0.521 -1.894,-0.974 -2.849,-1.412 -3.819,-1.723 -7.691,-3.193 -11.567,-4.659 l -23.269,-8.577 c -3.854,-1.463 -7.701,-2.952 -11.448,-4.602 -1.864,-0.831 -3.728,-1.696 -5.415,-2.706 -0.417,-0.253 -0.821,-0.519 -1.174,-0.794 -0.341,-0.251 -0.678,-0.621 -0.693,-0.697 0.007,0.003 0.015,0.033 0.017,0.137 -0.008,0.093 -0.053,0.205 -0.083,0.237 -0.059,0.066 0.032,-0.028 0.179,-0.084 0.311,-0.132 0.765,-0.24 1.225,-0.311 l 0.079,-0.012 0.08,-0.026 c 8.043,-2.544 16.035,-5.193 24.004,-7.944 7.965,-2.757 15.901,-5.61 23.754,-8.718 3.925,-1.56 7.83,-3.181 11.679,-4.982 1.922,-0.907 3.832,-1.852 5.703,-2.938 0.936,-0.546 1.862,-1.122 2.765,-1.811 0.452,-0.347 0.898,-0.721 1.332,-1.183 0.4,-0.488 0.934,-0.997 1.048,-2.121 0.048,-0.563 -0.219,-1.203 -0.553,-1.559 -0.332,-0.377 -0.676,-0.585 -0.99,-0.746 -0.309,-0.162 -0.634,-0.28 -0.939,-0.377 -0.142,-0.04 -0.218,-0.07 -0.413,-0.117 l -0.405,-0.098 c -1.077,-0.272 -2.172,-0.441 -3.265,-0.562 -2.19,-0.231 -4.381,-0.2 -6.536,10e-4 -4.316,0.403 -8.497,1.424 -12.566,2.669 -8.14,2.52 -15.884,5.937 -23.629,9.204 -3.872,1.636 -7.743,3.253 -11.664,4.683 -3.917,1.409 -7.896,2.7 -11.932,3.279 -2.01,0.289 -4.046,0.356 -5.964,0.04 l -0.689,-0.135 -0.727,-0.192 c -0.318,-0.097 -0.742,-0.334 -1.136,-0.595 -0.806,-0.533 -1.6,-1.19 -2.374,-1.863 -3.094,-2.738 -6.005,-5.791 -8.938,-8.797 -2.929,-3.02 -5.849,-6.061 -8.877,-9.015 -1.516,-1.475 -3.058,-2.93 -4.671,-4.325 -1.626,-1.382 -3.273,-2.75 -5.248,-3.827 -0.501,-0.261 -1.026,-0.503 -1.62,-0.672 -0.588,-0.157 -1.294,-0.281 -2.07,-0.009 -0.797,0.281 -1.307,1.02 -1.512,1.627 -0.228,0.627 -0.294,1.223 -0.322,1.798 -0.043,1.158 0.074,2.224 0.267,3.331 0.219,1.094 0.556,2.16 0.992,3.177 1.815,4.084 5.022,7.15 8.19,9.924 l 4.807,4.09 c 1.559,1.373 3.09,2.789 4.236,4.42 0.276,0.396 0.516,0.79 0.765,1.281 0.195,0.38 0.34,0.83 0.37,1.225 0.078,0.801 -0.369,1.508 -1.123,2.058 -1.535,1.085 -3.623,1.578 -5.624,1.958 -4.08,0.694 -8.287,0.83 -12.47,0.855 -4.19,0.01 -8.387,-0.147 -12.579,-0.382 -8.387,-0.478 -16.759,-1.278 -25.12,-2.19 l -6.274,-0.698 c -1.056,-0.111 -2.075,-0.238 -3.182,-0.312 -0.354,-0.02 -0.604,0.032 -0.876,0.045 -0.27,0.025 -0.54,0.037 -0.811,0.081 -0.541,0.064 -1.08,0.157 -1.618,0.275 -2.143,0.457 -4.264,1.522 -5.81,3.136 -1.573,1.582 -2.648,3.436 -4.017,4.892 -2.66,3.018 -6.976,3.822 -10.979,3.388 -4.081,-0.425 -8.206,-1.513 -12.468,-1.936 -4.25,-0.486 -8.656,-0.366 -12.878,0.686 -1.031,0.256 -2.152,0.574 -3.121,0.921 -1.028,0.344 -2.068,0.789 -3.051,1.287 -1.979,1 -3.783,2.298 -5.421,3.749 -3.268,2.924 -5.962,6.386 -8.195,10.082 -1.126,1.846 -2.135,3.755 -3.063,5.704 -0.923,1.963 -1.779,3.906 -2.513,6.026 L 0,0 Z"
             style="fill:#472a5d;fill-opacity:1;fill-rule:nonzero;stroke:none"
             id="path26"
             inkscape:connector-curvature="0" /></g></g></g><text
       transform="matrix(0.54196195,0.84040302,0.84040302,-0.54196195,9.061,34.5542)"
       style="font-variant:normal;font-weight:bold;font-stretch:normal;font-size:9.99996376px;font-family:Harabara;-inkscape-font-specification:Harabara;writing-mode:lr-tb;fill:#472a5d;fill-opacity:1;fill-rule:nonzero;stroke:none"
       id="text28"><tspan
         x="0"
         y="0"
         id="tspan30">1</tspan></text>
<text
       transform="matrix(0.55824415,0.82967672,0.82967672,-0.55824415,10.522,36.8384)"
       style="font-variant:normal;font-weight:bold;font-stretch:normal;font-size:9.49996471px;font-family:Harabara;-inkscape-font-specification:Harabara;writing-mode:lr-tb;fill:#472a5d;fill-opacity:1;fill-rule:nonzero;stroke:none"
       id="text32"><tspan
         x="0"
         y="0"
         id="tspan34">0</tspan></text>
<text
       transform="matrix(0.57425477,0.81867665,0.81867665,-0.57425477,13.2246,40.835)"
       style="font-variant:normal;font-weight:bold;font-stretch:normal;font-size:9.0000124px;font-family:Harabara;-inkscape-font-specification:Harabara;writing-mode:lr-tb;fill:#472a5d;fill-opacity:1;fill-rule:nonzero;stroke:none"
       id="text36"><tspan
         x="0"
         y="0"
         id="tspan38">1</tspan></text>
<text
       transform="matrix(0.59058661,0.80697426,0.80697426,-0.59058661,14.6108,42.8291)"
       style="font-variant:normal;font-weight:bold;font-stretch:normal;font-size:8.50002289px;font-family:Harabara;-inkscape-font-specification:Harabara;writing-mode:lr-tb;fill:#472a5d;fill-opacity:1;fill-rule:nonzero;stroke:none"
       id="text40"><tspan
         x="0"
         y="0"
         id="tspan42">0</tspan></text>
<text
       transform="matrix(0.61447441,0.78893675,0.78893675,-0.61447441,17.1572,46.3101)"
       style="font-variant:normal;font-weight:bold;font-stretch:normal;font-size:8.00000763px;font-family:Harabara;-inkscape-font-specification:Harabara;writing-mode:lr-tb;fill:#472a5d;fill-opacity:1;fill-rule:nonzero;stroke:none"
       id="text44"><tspan
         x="0"
         y="0"
         id="tspan46">0</tspan></text>
<text
       transform="matrix(0.64239812,0.76637109,0.76637109,-0.64239812,19.6372,49.4971)"
       style="font-variant:normal;font-weight:bold;font-stretch:normal;font-size:7.50002193px;font-family:Harabara;-inkscape-font-specification:Harabara;writing-mode:lr-tb;fill:#472a5d;fill-opacity:1;fill-rule:nonzero;stroke:none"
       id="text48"><tspan
         x="0"
         y="0"
         id="tspan50">0</tspan></text>
<text
       transform="matrix(0.66782899,0.74431475,0.74431475,-0.66782899,22.0767,52.3862)"
       style="font-variant:normal;font-weight:bold;font-stretch:normal;font-size:6.99999571px;font-family:Harabara;-inkscape-font-specification:Harabara;writing-mode:lr-tb;fill:#472a5d;fill-opacity:1;fill-rule:nonzero;stroke:none"
       id="text52"><tspan
         x="0"
         y="0"
         id="tspan54">1</tspan></text>
<text
       transform="matrix(0.68778049,0.72591872,0.72591872,-0.68778049,23.3418,53.7969)"
       style="font-variant:normal;font-weight:bold;font-stretch:normal;font-size:6.5000391px;font-family:Harabara;-inkscape-font-specification:Harabara;writing-mode:lr-tb;fill:#472a5d;fill-opacity:1;fill-rule:nonzero;stroke:none"
       id="text56"><tspan
         x="0"
         y="0"
         id="tspan58">1</tspan></text>
<text
       transform="matrix(0.71942271,0.6945725,0.6945725,-0.71942271,24.5156,55.061)"
       style="font-variant:normal;font-weight:bold;font-stretch:normal;font-size:5.99994946px;font-family:Harabara;-inkscape-font-specification:Harabara;writing-mode:lr-tb;fill:#472a5d;fill-opacity:1;fill-rule:nonzero;stroke:none"
       id="text60"><tspan
         x="0"
         y="0"
         id="tspan62">0</tspan></text>
<text
       transform="matrix(0.75784047,0.6524399,0.6524399,-0.75784047,26.6904,57.1372)"
       style="font-variant:normal;font-weight:bold;font-stretch:normal;font-size:5.49997044px;font-family:Harabara;-inkscape-font-specification:Harabara;writing-mode:lr-tb;fill:#472a5d;fill-opacity:1;fill-rule:nonzero;stroke:none"
       id="text64"><tspan
         x="0"
         y="0"
         id="tspan66">1</tspan></text>
<text
       transform="matrix(0.78821688,0.61539756,0.61539756,-0.78821688,27.8057,58.0977)"
       style="font-variant:normal;font-weight:bold;font-stretch:normal;font-size:5.00002003px;font-family:Harabara;-inkscape-font-specification:Harabara;writing-mode:lr-tb;fill:#472a5d;fill-opacity:1;fill-rule:nonzero;stroke:none"
       id="text68"><tspan
         x="0"
         y="0"
         id="tspan70">1</tspan></text>
<text
       transform="matrix(0.83462248,0.55082239,0.55082239,-0.83462248,28.7808,58.8936)"
       style="font-variant:normal;font-weight:bold;font-stretch:normal;font-size:4.49999857px;font-family:Harabara;-inkscape-font-specification:Harabara;writing-mode:lr-tb;fill:#472a5d;fill-opacity:1;fill-rule:nonzero;stroke:none"
       id="text72"><tspan
         x="0"
         y="0"
         id="tspan74">0</tspan></text>
<text
       transform="matrix(0.02843517,-0.99959564,-0.99959564,-0.02843517,34.7695,99.4814)"
       style="font-variant:normal;font-weight:bold;font-stretch:normal;font-size:8.50003719px;font-family:Harabara;-inkscape-font-specification:Harabara;writing-mode:lr-tb;fill:#472a5d;fill-opacity:1;fill-rule:nonzero;stroke:none"
       id="text76"><tspan
         x="0"
         y="0"
         id="tspan78">0</tspan></text>
<text
       transform="matrix(0.03808748,-0.99927441,-0.99927441,-0.03808748,34.8979,95.1563)"
       style="font-variant:normal;font-weight:bold;font-stretch:normal;font-size:8.00000477px;font-family:Harabara;-inkscape-font-specification:Harabara;writing-mode:lr-tb;fill:#472a5d;fill-opacity:1;fill-rule:nonzero;stroke:none"
       id="text80"><tspan
         x="0"
         y="0"
         id="tspan82">1</tspan></text>
<text
       transform="matrix(0.0451736,-0.99897915,-0.99897915,-0.0451736,34.981,92.9834)"
       style="font-variant:normal;font-weight:bold;font-stretch:normal;font-size:7.49995613px;font-family:Harabara;-inkscape-font-specification:Harabara;writing-mode:lr-tb;fill:#472a5d;fill-opacity:1;fill-rule:nonzero;stroke:none"
       id="text84"><tspan
         x="0"
         y="0"
         id="tspan86">1</tspan></text>
<text
       transform="matrix(0.05655711,-0.99839937,-0.99839937,-0.05655711,35.0674,90.957)"
       style="font-variant:normal;font-weight:bold;font-stretch:normal;font-size:7.00000429px;font-family:Harabara;-inkscape-font-specification:Harabara;writing-mode:lr-tb;fill:#472a5d;fill-opacity:1;fill-rule:nonzero;stroke:none"
       id="text88"><tspan
         x="0"
         y="0"
         id="tspan90">0</tspan></text>
<text
       transform="matrix(0.07130718,-0.9974544,-0.9974544,-0.07130718,35.2749,87.3921)"
       style="font-variant:normal;font-weight:bold;font-stretch:normal;font-size:6.50004673px;font-family:Harabara;-inkscape-font-specification:Harabara;writing-mode:lr-tb;fill:#472a5d;fill-opacity:1;fill-rule:nonzero;stroke:none"
       id="text92"><tspan
         x="0"
         y="0"
         id="tspan94">1</tspan></text>
<text
       transform="matrix(0.09088287,-0.99586159,-0.99586159,-0.09088287,35.394,85.6138)"
       style="font-variant:normal;font-weight:bold;font-stretch:normal;font-size:6.00003052px;font-family:Harabara;-inkscape-font-specification:Harabara;writing-mode:lr-tb;fill:#472a5d;fill-opacity:1;fill-rule:nonzero;stroke:none"
       id="text96"><tspan
         x="0"
         y="0"
         id="tspan98">0</tspan></text>
<text
       transform="matrix(0.12158177,-0.99258142,-0.99258142,-0.12158177,35.6855,82.5234)"
       style="font-variant:normal;font-weight:bold;font-stretch:normal;font-size:5.50000238px;font-family:Harabara;-inkscape-font-specification:Harabara;writing-mode:lr-tb;fill:#472a5d;fill-opacity:1;fill-rule:nonzero;stroke:none"
       id="text100"><tspan
         x="0"
         y="0"
         id="tspan102">1</tspan></text>
<text
       transform="matrix(0.17985862,-0.98369247,-0.98369247,-0.17985862,35.8638,80.8975)"
       style="font-variant:normal;font-weight:bold;font-stretch:normal;font-size:5.00003815px;font-family:Harabara;-inkscape-font-specification:Harabara;writing-mode:lr-tb;fill:#472a5d;fill-opacity:1;fill-rule:nonzero;stroke:none"
       id="text104"><tspan
         x="0"
         y="0"
         id="tspan106">0</tspan></text>
<g
       id="g108"><g
         id="g110"
         clip-path="url(#clipPath112)"><text
           transform="matrix(1,0,0,-1,47.3877,22.1641)"
           style="font-variant:normal;font-weight:bold;font-stretch:normal;font-size:91.81069946px;font-family:Harabara;-inkscape-font-specification:Harabara;writing-mode:lr-tb;fill:#c7313c;fill-opacity:1;fill-rule:nonzero;stroke:none"
           id="text116"><tspan
             x="0 54.902798 95.942184 161.03596 214.10255"
             y="0"
             sodipodi:role="line"
             id="tspan118">DaMBi</tspan></text>
</g></g><text
       transform="matrix(1,0,0,-1,281.4995,66.291)"
       style="font-variant:normal;font-weight:bold;font-stretch:normal;font-size:24px;font-family:Harabara;-inkscape-font-specification:Harabara;writing-mode:lr-tb;fill:#472a5d;fill-opacity:1;fill-rule:nonzero;stroke:none"
       id="text120"><tspan
         x="0 14.8824 26.162399 32.5224 43.257599 48.6576 68.603996 72.851997 84.782402 89.030403 100.9584"
         y="0"
         sodipodi:role="line"
         id="tspan122">Data mining</tspan><tspan
         x="0 11.28 23.2104 35.2104 40.610401 58.166401 70.430397 82.970398 95.234398 99.755997 104.28 108.528 120.4584"
         y="22.128"
         sodipodi:role="line"
         id="tspan124">and Modelling</tspan><tspan
         x="0 5.9759998 18.24 25.5984"
         y="44.256001"
         sodipodi:role="line"
         id="tspan126">for </tspan><tspan
         x="30.9984 45.4104 49.658401 61.922401 81.866402 94.130402 106.668 110.916 122.988 127.236 139.1664"
         y="44.256001"
         sodipodi:role="line"
         id="tspan128">Biomedicine</tspan></text>
</g></svg>